<svg width="26" height="29" viewBox="0 0 26 29" fill="none" xmlns="http://www.w3.org/2000/svg">
<path d="M1.7085 19.1548C1.31787 19.1548 0.988281 19.0205 0.719727 18.752C0.451172 18.4753 0.316895 18.1416 0.316895 17.751V10.6221C0.316895 10.2314 0.451172 9.89779 0.719727 9.62109C0.988281 9.3444 1.31787 9.20605 1.7085 9.20605C2.09912 9.20605 2.42871 9.3444 2.69727 9.62109C2.97396 9.89779 3.1123 10.2314 3.1123 10.6221V17.751C3.1123 18.1416 2.97396 18.4753 2.69727 18.752C2.42871 19.0205 2.09912 19.1548 1.7085 19.1548ZM6.21289 23.8789C5.8304 23.8789 5.50488 23.7446 5.23633 23.4761C4.96777 23.2075 4.8335 22.8779 4.8335 22.4873V9.62109L7.62891 12.4165V22.4873C7.62891 22.8779 7.49056 23.2075 7.21387 23.4761C6.93717 23.7446 6.60352 23.8789 6.21289 23.8789ZM10.7173 0.34375C11.116 0.34375 11.4497 0.482096 11.7183 0.758789C11.995 1.02734 12.1333 1.35693 12.1333 1.74756V8.4126L9.33789 5.61719V1.74756C9.33789 1.35693 9.47217 1.02734 9.74072 0.758789C10.0093 0.482096 10.3348 0.34375 10.7173 0.34375ZM10.7173 28.0781C10.3348 28.0781 10.0093 27.9398 9.74072 27.6631C9.47217 27.3945 9.33789 27.0649 9.33789 26.6743V14.1377L12.1333 16.9331V26.6743C12.1333 27.0649 11.995 27.3945 11.7183 27.6631C11.4497 27.9398 11.116 28.0781 10.7173 28.0781ZM15.2461 6.41064C15.6286 6.41064 15.9582 6.54899 16.2349 6.82568C16.5116 7.09424 16.6499 7.42383 16.6499 7.81445V12.917L13.8545 10.1338V7.81445C13.8545 7.42383 13.9888 7.09424 14.2573 6.82568C14.5259 6.54899 14.8555 6.41064 15.2461 6.41064ZM15.2583 23.0244C14.8677 23.0244 14.534 22.8861 14.2573 22.6094C13.9888 22.3327 13.8545 21.999 13.8545 21.6084V18.6055L16.6499 21.4009V21.6084C16.6499 21.999 16.5156 22.3327 16.2471 22.6094C15.9785 22.8861 15.6489 23.0244 15.2583 23.0244ZM19.7505 2.98047C20.1411 2.98047 20.4748 3.11882 20.7515 3.39551C21.0282 3.66406 21.1665 3.99365 21.1665 4.38428V17.4214L18.3711 14.6382V4.38428C18.3711 3.99365 18.5013 3.66406 18.7617 3.39551C19.0303 3.11882 19.3599 2.98047 19.7505 2.98047ZM24.2549 8.54688C24.6536 8.54688 24.9873 8.68522 25.2559 8.96191C25.5326 9.23861 25.6709 9.57227 25.6709 9.96289V18.4102C25.6709 18.8008 25.5326 19.1344 25.2559 19.4111C24.9873 19.6797 24.6536 19.814 24.2549 19.814C23.8724 19.814 23.5469 19.6797 23.2783 19.4111C23.0098 19.1344 22.8755 18.8008 22.8755 18.4102V9.96289C22.8755 9.57227 23.0098 9.23861 23.2783 8.96191C23.5469 8.68522 23.8724 8.54688 24.2549 8.54688ZM24.0107 26.0273L1.83057 3.87158C1.63525 3.66813 1.53353 3.41585 1.52539 3.11475C1.52539 2.8055 1.62712 2.54915 1.83057 2.3457C2.03402 2.14225 2.2863 2.0446 2.5874 2.05273C2.88851 2.05273 3.14486 2.15853 3.35645 2.37012L25.5244 24.5259C25.736 24.7293 25.8418 24.9735 25.8418 25.2583C25.8499 25.5513 25.7441 25.8076 25.5244 26.0273C25.3291 26.2227 25.0809 26.3244 24.7798 26.3325C24.4868 26.3407 24.2305 26.2389 24.0107 26.0273Z" fill="#A2A2A2"/>
</svg>
