<svg width="50" height="53" viewBox="0 0 50 53" fill="none" xmlns="http://www.w3.org/2000/svg">
<rect width="50" height="53" rx="10" fill="#31333C"/>
<path d="M42.9306 25.3699L42.9093 22.8213C42.8587 17.1918 38.5337 12.6694 33.2458 12.7204C29.639 12.7544 26.5189 14.9094 24.9123 18.0611C23.2525 14.9405 20.0952 12.8478 16.4883 12.8846C11.2004 12.9356 6.95252 17.5401 7.0004 23.1697L7.02168 25.7183L7.09882 34.6383C7.12808 38.1582 9.83321 40.9844 13.1368 40.9504C16.4404 40.9164 19.0977 38.0393 19.0658 34.5222C19.095 38.0421 21.8002 40.8683 25.1038 40.8343C28.4074 40.8003 31.0647 37.9232 31.0327 34.4061C31.062 37.926 33.7671 40.7522 37.0708 40.7182C40.3744 40.6842 43.0316 37.8071 42.9997 34.29L42.9226 25.3699H42.9306Z" fill="#F1F1F1"/>
</svg>
